<svg width="31" height="31" viewBox="0 0 31 31" fill="none" xmlns="http://www.w3.org/2000/svg">
<path d="M26.7 0.799988H4.3C2.368 0.799988 0.799999 2.36799 0.799999 4.29999V26.7C0.799999 28.632 2.368 30.2 4.3 30.2H26.7C28.632 30.2 30.2 28.632 30.2 26.7V4.29999C30.2 2.36799 28.632 0.799988 26.7 0.799988ZM9.9 12V25.3H5.7V12H9.9ZM5.7 8.12899C5.7 7.14899 6.54 6.39999 7.8 6.39999C9.06 6.39999 9.851 7.14899 9.9 8.12899C9.9 9.10899 9.116 9.89999 7.8 9.89999C6.54 9.89999 5.7 9.10899 5.7 8.12899ZM25.3 25.3H21.1C21.1 25.3 21.1 18.818 21.1 18.3C21.1 16.9 20.4 15.5 18.65 15.472H18.594C16.9 15.472 16.2 16.914 16.2 18.3C16.2 18.937 16.2 25.3 16.2 25.3H12V12H16.2V13.792C16.2 13.792 17.551 12 20.267 12C23.046 12 25.3 13.911 25.3 17.782V25.3Z" fill="#1D1D1D"/>
</svg>
