<svg width="100" height="100" fill="none" xmlns="http://www.w3.org/2000/svg"><path d="M50 96.875c-6.078 0-11.685-5.041-15.789-14.195-3.925-8.754-6.086-20.361-6.086-32.68 0-12.319 2.161-23.925 6.086-32.68C38.315 8.166 43.921 3.125 50 3.125c6.078 0 11.685 5.041 15.789 14.195 3.925 8.755 6.086 20.361 6.086 32.68 0 12.319-2.161 23.926-6.086 32.68-4.104 9.154-9.71 14.195-15.789 14.195ZM50 6.25c-4.704 0-9.42 4.5-12.937 12.348C33.314 26.96 31.25 38.112 31.25 50c0 11.888 2.064 23.04 5.813 31.402C40.58 89.249 45.296 93.75 50 93.75c4.704 0 9.42-4.5 12.937-12.348C66.686 73.04 68.75 61.888 68.75 50c0-11.888-2.064-23.04-5.813-31.402C59.42 10.751 54.704 6.25 50 6.25Z" fill="#7CB"/><path d="M77.113 82.814a44.883 44.883 0 0 1-7.865-.755c-10.189-1.825-21.814-6.763-32.735-13.904-8.1-5.297-15.193-11.415-20.515-17.694-5.275-6.225-8.553-12.295-9.478-17.555-.71-4.034-.04-7.452 1.989-10.159 3.747-4.996 11.647-6.703 22.244-4.806 10.188 1.825 21.813 6.763 32.734 13.904 8.1 5.297 15.193 11.415 20.515 17.694 5.275 6.225 8.553 12.295 9.478 17.555.71 4.034.04 7.452-1.989 10.159-2.749 3.665-7.733 5.56-14.378 5.56ZM22.932 20.318c-5.609 0-9.802 1.476-11.922 4.304-1.491 1.988-1.966 4.593-1.412 7.742C11.344 42.287 22.58 55.31 38.224 65.54c10.577 6.916 21.79 11.69 31.574 13.442 9.239 1.655 16.235.341 19.192-3.604 1.491-1.988 1.966-4.593 1.412-7.742-1.746-9.922-12.983-22.945-28.626-33.175-10.577-6.917-21.79-11.691-31.574-13.443a41.533 41.533 0 0 0-7.27-.7Z" fill="#7CB"/><path d="M22.887 82.814c-6.646 0-11.629-1.895-14.378-5.561-2.03-2.707-2.698-6.125-1.988-10.16.925-5.259 4.203-11.33 9.478-17.554 5.322-6.279 12.415-12.397 20.515-17.694 10.92-7.141 22.545-12.079 32.734-13.904 10.598-1.897 18.496-.19 22.243 4.806 2.03 2.707 2.699 6.125 1.99 10.159-.926 5.26-4.204 11.33-9.48 17.555-5.32 6.279-12.415 12.397-20.514 17.694-10.92 7.141-22.546 12.079-32.734 13.904a44.883 44.883 0 0 1-7.866.755Zm14.482-49.661.855 1.308C22.581 44.69 11.344 57.713 9.598 67.636c-.554 3.149-.08 5.754 1.412 7.742 2.958 3.945 9.953 5.259 19.192 3.604 9.784-1.752 20.996-6.526 31.574-13.442 15.644-10.23 26.88-23.253 28.626-33.176.554-3.149.08-5.754-1.412-7.742-2.958-3.945-9.953-5.259-19.192-3.604-9.784 1.752-20.997 6.526-31.574 13.443l-.855-1.308Z" fill="#7CB"/><path d="M12.5 62.5a4.688 4.688 0 1 0 0-9.375 4.688 4.688 0 0 0 0 9.375ZM75 85.938a4.688 4.688 0 1 0 0-9.376 4.688 4.688 0 0 0 0 9.376ZM60.938 17.188a4.688 4.688 0 1 0 0-9.376 4.688 4.688 0 0 0 0 9.375Z" fill="#DA6359"/><circle cx="49.902" cy="49.902" r="11.23" fill="#B0AB33"/><circle cx="49.805" cy="50" r="8.984" fill="#CFCA4F"/><path d="M53.734 52.495c.008-1.115-.433-1.997-1.312-2.62-.68-.48-1.504-.73-2.301-.97-1.662-.504-2.144-.77-2.144-1.564 0-.885 1.15-1.2 2.135-1.2.717 0 1.542.223 2.054.554l1.015-1.573c-.67-.434-1.585-.73-2.49-.822v-1.469h-1.873v1.572c-1.666.366-2.715 1.455-2.715 2.938 0 1.039.432 1.863 1.281 2.444.646.444 1.433.682 2.194.912 1.63.493 2.29.793 2.283 1.787v.007c0 .834-1.105 1.13-2.052 1.13-.895 0-1.868-.391-2.42-.974l-1.36 1.287c.698.739 1.713 1.261 2.788 1.466v1.532h1.874v-1.5c1.85-.264 3.041-1.378 3.043-2.937Z" fill="#B0AB33"/></svg>