<svg width="79" height="49" fill="none" xmlns="http://www.w3.org/2000/svg"><path d="M.016 49 7.504 1.864h14.208L20.56 8.872c1.856-2.752 4.096-4.768 6.72-6.048 2.624-1.28 5.344-1.92 8.16-1.92 6.464 0 10.752 2.976 12.864 8.928C51.824 3.88 57.296.904 64.72.904c4.928 0 8.704 1.6 11.328 4.8 2.688 3.2 3.488 8.288 2.4 15.264L74.032 49H59.536l4.416-27.936c.896-5.952-.864-8.928-5.28-8.928-2.752 0-5.024 1.024-6.816 3.072-1.792 2.048-2.976 4.928-3.552 8.64L44.272 49H29.776l4.416-27.936c.96-5.952-.8-8.928-5.28-8.928-2.688 0-4.96 1.024-6.816 3.072-1.792 2.048-2.976 4.928-3.552 8.64L14.512 49H.016Z" fill="url(#a)"/><defs><linearGradient id="a" x1="42" y1="-48" x2="42" y2="59" gradientUnits="userSpaceOnUse"><stop stop-color="#6786E4"/><stop offset="1" stop-color="#4169E1"/></linearGradient></defs></svg>